<svg width="15" height="15" viewBox="0 0 15 15" fill="none" xmlns="http://www.w3.org/2000/svg">
<g clip-path="url(#clip0_1356_1523)">
<path d="M14.7481 6.70583L8.01807 0.573481C7.72267 0.304273 7.27721 0.304302 6.98193 0.573452L0.251895 6.70586C0.0152649 6.92149 -0.062899 7.25371 0.0527063 7.55222C0.168341 7.85072 0.449883 8.04358 0.77001 8.04358H1.84491V14.1877C1.84491 14.4313 2.04243 14.6289 2.28603 14.6289H5.97491C6.21851 14.6289 6.41603 14.4314 6.41603 14.1877V10.4572H8.58406V14.1878C8.58406 14.4314 8.78158 14.6289 9.02518 14.6289H12.7139C12.9575 14.6289 13.155 14.4314 13.155 14.1878V8.04358H14.2301C14.5502 8.04358 14.8318 7.85069 14.9474 7.55222C15.0629 7.25368 14.9847 6.92149 14.7481 6.70583Z" fill="#D6D6D6"/>
<path d="M13.0401 1.25171H10.0776L13.4812 4.34651V1.6928C13.4812 1.4492 13.2837 1.25171 13.0401 1.25171Z" fill="#D6D6D6"/>
</g>
<defs>
<clipPath id="clip0_1356_1523">
<rect width="15" height="15" fill="white"/>
</clipPath>
</defs>
</svg>
