<?xml version="1.0" encoding="utf-8"?>
<!-- Generator: Adobe Illustrator 26.2.1, SVG Export Plug-In . SVG Version: 6.00 Build 0)  -->
<svg version="1.1" id="Layer_1" xmlns="http://www.w3.org/2000/svg" xmlns:xlink="http://www.w3.org/1999/xlink" x="0px" y="0px"
	 viewBox="0 0 180 35" style="enable-background:new 0 0 180 35;" xml:space="preserve">
<path d="M114.1,17.3c-0.1-2.4-2-4.3-4.3-4.3h-3c-2-7.4-8.8-12.9-16.8-12.9S75.2,5.6,73.2,13h-3c-2.3,0-4.2,1.9-4.3,4.3H0v0.3h65.9
	c0.1,2.4,2,4.3,4.3,4.3h3c2,7.4,8.8,12.9,16.8,12.9s14.8-5.5,16.8-12.9h3c2.3,0,4.2-1.9,4.3-4.3H180v-0.3H114.1z M90,0.4
	c7.9,0,14.5,5.3,16.5,12.6h-5.1C99.6,8.5,95.2,5.3,90,5.3S80.4,8.5,78.6,13h-5.1C75.5,5.8,82.1,0.4,90,0.4z M101.1,13H78.9
	C80.7,8.6,85,5.6,90,5.6S99.3,8.6,101.1,13z M90,34.6c-7.9,0-14.5-5.3-16.5-12.6h5.1c1.8,4.5,6.2,7.7,11.4,7.7s9.6-3.2,11.4-7.7h5.1
	C104.5,29.2,97.9,34.6,90,34.6z M78.9,22h22.1c-1.8,4.3-6.1,7.4-11.1,7.4S80.7,26.4,78.9,22z M109.8,21.7H70.2c-2.2,0-4-1.9-4-4.2
	c0-2.3,1.8-4.2,4-4.2h39.6c2.2,0,4,1.9,4,4.2C113.8,19.8,112,21.7,109.8,21.7z"/>
</svg>
