<svg width="16" height="16" viewBox="0 0 16 16" fill="none" xmlns="http://www.w3.org/2000/svg">
<path d="M0 4.02055C0.0442496 3.88233 0.0966707 3.74724 0.156945 3.61613C0.578238 2.79795 1.11151 2.06387 1.70349 1.38272C2.05776 0.98366 2.43304 0.606518 2.82749 0.253121C3.36077 -0.236271 3.89904 0.0662539 4.17255 0.46711C4.87151 1.49038 5.52386 2.5497 6.02217 3.70644C6.09279 3.87922 6.15298 4.05666 6.20241 4.23765C6.29482 4.54908 6.23947 4.84406 6.03257 5.07674C5.79362 5.34591 5.53092 5.59283 5.26907 5.83753C4.92105 6.16275 4.91272 6.15963 5.09214 6.60854C5.87201 8.55869 7.18654 9.9192 9.03573 10.6901C9.19434 10.7564 9.29009 10.7452 9.40249 10.5949C9.62521 10.2946 9.86708 10.0098 10.1102 9.72819C10.4187 9.37227 10.7996 9.2597 11.2146 9.46436C11.7471 9.7264 12.2791 9.99824 12.7824 10.315C13.3806 10.6945 13.9505 11.1261 14.5279 11.5421C14.7657 11.7133 14.9072 11.9611 14.9788 12.2592C15.0012 12.3394 15.0078 12.4236 14.9983 12.5066C14.9888 12.5896 14.9633 12.6696 14.9234 12.7415C14.8267 12.9258 14.7153 13.1009 14.5904 13.2647C13.7665 14.2751 12.7945 15.0942 11.7388 15.8113C11.3691 16.0627 11.0019 16.0187 10.6148 15.9364C9.26345 15.6507 8.03871 15.0399 6.89306 14.2457C4.52016 12.5996 2.61185 10.4792 1.216 7.84403C0.69355 6.85813 0.296397 5.81572 0.0965737 4.69635C0.0591069 4.48813 0.0362179 4.27859 0 4.02055Z" fill="white"/>
</svg>
