<svg width="173" height="125" viewBox="0 0 173 125" fill="none" xmlns="http://www.w3.org/2000/svg">
<g clip-path="url(#clip0_3:165)">
<path d="M148.121 62.4638C148.121 96.6599 120.429 124.349 86.2477 124.349C52.0659 124.349 24.3744 96.6599 24.3744 62.4638C24.3744 28.2678 52.0659 0.578369 86.2477 0.578369C120.429 0.578369 148.121 28.2678 148.121 62.4638Z" fill="#FFC92E" stroke="black" stroke-width="1.5912"/>
<path d="M129.588 62.4639C129.588 86.3939 110.189 105.842 86.1756 105.842C62.2339 105.842 42.7633 86.3939 42.7633 62.4639C42.7633 38.5338 62.1618 19.0862 86.1756 19.0862C110.189 19.0862 129.588 38.5338 129.588 62.4639Z" fill="white" stroke="black" stroke-width="1.5912"/>
<path d="M55.2388 41.5703C61.4405 31.3043 74.1325 24.7976 86.2475 24.7976C98.4347 24.7976 111.127 31.3043 117.328 41.5703H55.2388Z" fill="black"/>
<path d="M55.2388 83.502C61.4405 93.768 74.1325 100.275 86.2475 100.275C98.4347 100.275 111.127 93.768 117.328 83.502H55.2388Z" fill="black"/>
<path d="M43.7007 39.2567L43.4843 39.1121L43.7007 38.823C43.917 38.5338 43.9891 38.2446 43.8449 37.9554C43.7728 37.8108 43.5565 37.5939 43.1238 37.3047L38.4364 34.1237C38.0037 33.8345 37.6432 33.6899 37.4989 33.6899C37.2826 33.6899 36.9941 33.9068 36.8499 34.1237L36.6336 34.4129L36.4172 34.2683L38.4364 31.3042C39.1575 30.2197 39.8787 29.4245 40.4556 29.063C41.1046 28.6292 41.8257 28.4846 42.619 28.4846C43.4122 28.5569 44.2055 28.7738 44.9266 29.2799C45.9362 29.9305 46.5852 30.8704 46.8016 31.8825C47.09 33.1116 46.7295 34.4129 45.792 35.8588L43.7007 39.2567ZM44.5661 36.7987C44.9987 36.4372 45.2872 36.0757 45.5035 35.7142C46.0804 34.8467 46.2247 33.9791 46.0083 33.0393C45.792 32.0994 45.2151 31.3042 44.2055 30.6535C43.1959 30.0028 42.2584 29.7137 41.3209 29.8582C40.3835 30.0028 39.5902 30.5089 39.0133 31.3765C38.797 31.6656 38.5806 32.0994 38.4364 32.6055L44.5661 36.7987Z" fill="black" stroke="#2F2F2F" stroke-width="0.1064"/>
<path d="M45.7199 23.0625L48.0997 25.5205L49.4698 24.1469C49.8304 23.7854 50.0467 23.4962 50.0467 23.2794C50.0467 22.9902 49.9025 22.6287 49.614 22.2672L49.7583 22.1226L51.8496 24.2915L51.7053 24.4361C51.3448 24.1469 51.1284 24.0023 50.9842 24.0023C50.84 23.93 50.6236 23.93 50.4794 24.0023C50.2631 24.0746 50.0467 24.2192 49.8304 24.5084L48.4602 25.882L50.4794 27.9063C50.7679 28.1955 50.9121 28.3401 50.9842 28.3401C51.0563 28.3401 51.1284 28.4124 51.2726 28.3401C51.3448 28.3401 51.489 28.1955 51.7053 28.0509L52.787 26.9665C53.1476 26.605 53.3639 26.3158 53.5082 26.0989C53.6524 25.882 53.6524 25.6651 53.7245 25.3759C53.7245 25.0145 53.6524 24.5084 53.5082 23.93L53.7245 23.7131L54.7341 25.8097L49.9025 30.5813L49.7583 30.4367L49.9746 30.2198C50.1188 30.0752 50.2631 29.9306 50.2631 29.7137C50.3352 29.5691 50.3352 29.4245 50.2631 29.2799C50.1909 29.1353 50.0467 28.9185 49.7583 28.6293L45.792 24.5807C45.4315 24.2192 45.143 24.0023 44.9267 24.0023C44.7103 24.0023 44.4219 24.1469 44.2055 24.3638L43.9892 24.5807L43.845 24.4361L48.6766 19.6646L50.0467 20.9659L49.8304 21.1105C49.4698 20.8213 49.1814 20.6767 48.965 20.6767C48.7487 20.6044 48.5323 20.6767 48.316 20.749C48.1718 20.8213 47.8833 21.0382 47.5949 21.3274L45.7199 23.0625Z" fill="black" stroke="#2F2F2F" stroke-width="0.1064"/>
<path d="M56.1763 13.8086L57.8349 16.2667L57.6185 16.4113C57.258 15.9775 56.8253 15.6883 56.4647 15.4714C56.1041 15.3268 55.7436 15.2545 55.3109 15.2545C54.8782 15.3268 54.5176 15.3991 54.1571 15.6883C53.7965 15.9775 53.5802 16.2667 53.4359 16.6281C53.3638 16.9896 53.3638 17.3511 53.5802 17.6403C53.7244 17.8572 53.9407 18.0018 54.2292 18.0741C54.6619 18.2187 55.383 18.1464 56.5368 18.0741C57.4743 18.0018 58.1233 17.9295 58.4839 17.9295C58.8445 17.9295 59.205 18.0741 59.4935 18.2187C59.7819 18.3633 60.0704 18.6524 60.2867 18.8693C60.6473 19.4477 60.7915 20.0261 60.5752 20.749C60.4309 21.472 59.9983 21.9781 59.3492 22.4841C59.1329 22.6287 58.9166 22.7733 58.7002 22.8456C58.556 22.9179 58.2675 22.9902 57.907 23.1348C57.4743 23.2794 57.1858 23.3517 57.1137 23.424C57.0416 23.4963 56.9695 23.5686 56.9695 23.6409C56.9695 23.7132 56.9695 23.8578 57.0416 24.0746L56.9695 24.2915L55.3109 21.8335L55.5272 21.6889C55.9599 22.1226 56.3926 22.4118 56.6811 22.6287C57.0416 22.7733 57.4022 22.8456 57.8349 22.7733C58.2675 22.701 58.7002 22.5564 59.0608 22.2672C59.4935 21.9781 59.7819 21.6166 59.854 21.1828C59.9262 20.749 59.9262 20.3875 59.7098 20.0984C59.5656 19.9538 59.4214 19.8092 59.205 19.6646C58.9887 19.52 58.7002 19.52 58.4118 19.4477C58.1954 19.4477 57.6906 19.4477 56.8253 19.52C55.9599 19.5923 55.3109 19.5923 54.9503 19.5923C54.5176 19.5923 54.2292 19.4477 53.8686 19.3031C53.5802 19.1585 53.2917 18.9416 53.0754 18.6524C52.7148 18.1464 52.6427 17.568 52.7869 16.9173C52.9312 16.2667 53.2917 15.7606 53.9407 15.3268C54.3013 15.0376 54.8061 14.893 55.383 14.7484C55.6715 14.6761 55.8157 14.6761 55.8878 14.6039C55.9599 14.5316 56.032 14.4593 56.032 14.387C56.032 14.3147 56.032 14.1701 55.9599 13.9532L56.1763 13.8086Z" fill="black" stroke="#2F2F2F" stroke-width="0.1064"/>
<path d="M66.4885 18.1463L66.5607 18.3632L63.1713 20.026L63.0992 19.8091L63.3877 19.6645C63.7482 19.5199 63.8925 19.303 63.9646 19.0138C63.9646 18.8692 63.8925 18.5077 63.6761 18.074L61.2243 13.0132C61.0079 12.6518 60.8637 12.3626 60.7916 12.2903C60.7195 12.218 60.5752 12.1457 60.431 12.1457C60.2147 12.1457 59.9983 12.1457 59.8541 12.2903L59.5656 12.4349L59.4935 12.218L62.8829 10.5552L62.955 10.7721L62.5944 10.8444C62.306 10.989 62.0896 11.2058 62.0175 11.495C61.9454 11.6396 62.0896 12.0011 62.306 12.4349L64.7578 17.4956C64.9742 17.8571 65.1184 18.1463 65.1905 18.2186C65.2626 18.2909 65.4068 18.3632 65.5511 18.3632C65.7674 18.3632 65.9837 18.3632 66.128 18.2186L66.4885 18.1463Z" fill="black" stroke="#2F2F2F" stroke-width="0.1064"/>
<path d="M72.6904 6.7959L73.6999 9.32626L73.4836 9.39856C73.0509 8.82019 72.6182 8.38641 72.1856 8.16953C71.5365 7.88034 70.8154 7.80804 70.0222 8.02493C68.9405 8.38641 68.2914 9.03708 67.9309 10.0492C67.7145 10.9168 67.7145 11.7843 68.003 12.7965C68.2193 13.5917 68.652 14.2424 69.1568 14.8208C69.6616 15.3991 70.2385 15.7606 70.8154 15.9052C71.3923 16.0498 71.9692 16.0498 72.474 15.9052C72.7625 15.8329 73.0509 15.6883 73.3394 15.5437C73.6278 15.3991 73.8442 15.1823 74.0605 14.9654L73.3394 12.5796C73.1952 12.1458 73.123 11.9289 72.9788 11.7843C72.9067 11.6397 72.7625 11.6397 72.6182 11.5674C72.474 11.5674 72.1856 11.5674 71.8971 11.712L71.825 11.4951L75.0701 10.483L75.1422 10.6999L74.998 10.7722C74.7095 10.8445 74.4932 11.0614 74.4211 11.2783C74.349 11.4229 74.4211 11.7843 74.5653 12.2181L75.3586 14.7485C74.9259 15.1822 74.5653 15.4714 74.1326 15.7606C73.7 16.0498 73.1952 16.2667 72.6182 16.4113C70.9596 16.9174 69.5895 16.7728 68.4357 15.9775C67.5703 15.3991 66.9934 14.6039 66.6328 13.5917C66.4165 12.8688 66.3444 12.0735 66.4886 11.3506C66.6328 10.4107 67.0655 9.61545 67.6424 8.96478C68.1472 8.38641 68.7962 8.02493 69.6616 7.73575C69.9501 7.66345 70.2385 7.59116 70.527 7.51886C70.8154 7.51886 71.176 7.51886 71.6808 7.51886C71.9692 7.51886 72.1135 7.51886 72.1856 7.51886C72.2577 7.51886 72.3298 7.44656 72.3298 7.37427C72.3298 7.30197 72.3298 7.15738 72.3298 6.94049L72.6904 6.7959Z" fill="black" stroke="#2F2F2F" stroke-width="0.1064"/>
<path d="M76.7286 6.07284L79.1084 5.85596L85.0217 11.9288L84.6611 6.9404C84.589 6.43433 84.5169 6.07285 84.3727 5.92825C84.2284 5.78366 83.94 5.71136 83.5794 5.71136H83.291V5.49448L86.3197 5.27759V5.49448H86.0313C85.6707 5.49448 85.3822 5.63907 85.238 5.85596C85.1659 6.00055 85.1659 6.28973 85.1659 6.79581L85.7428 14.0977H85.5265L79.1805 7.59106L79.6132 12.941C79.6853 13.4471 79.7574 13.8085 79.9016 13.9531C80.0459 14.0977 80.3343 14.17 80.6949 14.17H80.9833V14.3869L77.9546 14.6038V14.3869H78.243C78.6036 14.3869 78.892 14.2423 79.0363 14.0254C79.1084 13.8808 79.1084 13.5916 79.1084 13.0856L78.6036 7.01269C78.3151 6.72351 78.0988 6.57892 77.9546 6.50662C77.8103 6.43433 77.594 6.36203 77.3777 6.28973C77.2334 6.28973 77.0892 6.28973 76.8007 6.28973L76.7286 6.07284Z" fill="black" stroke="#2F2F2F" stroke-width="0.1064"/>
<path d="M91.2234 9.25391C91.4398 9.25391 91.584 9.3262 91.6561 9.47079C91.8003 9.61539 91.8003 9.75998 91.8003 9.97687C91.8003 10.1938 91.7282 10.3383 91.584 10.4106C91.4398 10.5552 91.2956 10.5552 91.0792 10.5552C90.8629 10.5552 90.7187 10.4829 90.6465 10.3383C90.5023 10.1938 90.5023 10.0492 90.5023 9.83228C90.5023 9.61539 90.5744 9.47079 90.7187 9.3985C90.8629 9.3262 91.0071 9.25391 91.2234 9.25391Z" fill="black" stroke="#2F2F2F"/>
<path d="M101.319 11.8566C101.896 12.1458 102.257 12.435 102.473 12.7964C102.762 13.3025 102.834 13.8086 102.689 14.387C102.545 14.8207 102.329 15.1822 101.968 15.4714C101.608 15.7606 101.175 15.9775 100.67 16.0498C100.165 16.1221 99.4443 15.9775 98.4347 15.7606L94.3964 14.6761L94.4685 14.4593L94.7569 14.5316C95.1175 14.6038 95.406 14.6038 95.6223 14.387C95.7665 14.2424 95.9108 13.9532 95.9829 13.5194L97.4251 8.0972C97.5694 7.59113 97.5694 7.22964 97.4973 7.08505C97.353 6.86816 97.1367 6.72357 96.8482 6.65128L96.5598 6.50668L96.6319 6.28979L100.31 7.22964C101.031 7.37424 101.536 7.59113 101.896 7.80801C102.473 8.0972 102.906 8.53097 103.122 8.96475C103.338 9.39853 103.411 9.9046 103.266 10.4107C103.122 10.8445 102.906 11.2059 102.545 11.4228C102.257 11.712 101.824 11.8566 101.319 11.8566ZM96.9925 14.7484C97.4251 14.9653 97.9299 15.1822 98.3626 15.3268C99.1559 15.5437 99.7328 15.4714 100.238 15.2545C100.742 15.0376 101.031 14.6761 101.175 14.1701C101.247 13.8086 101.247 13.5194 101.175 13.1579C101.103 12.7964 100.814 12.5073 100.454 12.2181C100.093 11.9289 99.5886 11.712 99.0116 11.5674C98.7232 11.4951 98.5068 11.4228 98.3626 11.4228C98.1463 11.3505 98.0021 11.3505 97.9299 11.3505L96.9925 14.7484ZM98.0742 10.6999C98.2184 10.7722 98.3626 10.8445 98.579 10.9167C98.7953 10.989 99.0116 11.0613 99.228 11.1336C99.8049 11.2782 100.31 11.3505 100.67 11.2782C101.031 11.2059 101.319 11.0613 101.536 10.8445C101.752 10.6276 101.896 10.3384 102.04 10.0492C102.185 9.54312 102.04 9.10934 101.752 8.60327C101.464 8.16949 100.887 7.80801 100.093 7.59113C99.6607 7.44653 99.3001 7.44653 98.9395 7.44653L98.0742 10.6999Z" fill="black" stroke="#2F2F2F" stroke-width="0.1064"/>
<path d="M112.93 12.3626L113.002 12.1457L115.814 13.5193L115.742 13.7362L115.454 13.5916C115.165 13.4471 114.805 13.4471 114.516 13.5916C114.372 13.6639 114.228 13.9531 114.011 14.3869L112.425 17.5679C112.064 18.3632 111.632 18.9416 111.271 19.303C110.91 19.6645 110.406 19.8814 109.757 19.9537C109.108 20.026 108.459 19.8814 107.665 19.4476C106.8 19.0139 106.223 18.5078 105.935 18.0017C105.646 17.4956 105.502 16.9173 105.574 16.3389C105.646 15.9051 105.862 15.2545 106.367 14.3146L107.882 11.2782C108.098 10.7721 108.242 10.4829 108.17 10.266C108.098 10.0491 107.954 9.83224 107.665 9.68765L107.377 9.54306L107.449 9.32617L110.838 11.0613L110.766 11.2782L110.478 11.1336C110.117 10.989 109.901 10.989 109.612 11.0613C109.468 11.1336 109.252 11.4228 109.035 11.8565L107.377 15.2545C107.233 15.5436 107.088 15.9051 106.944 16.3389C106.8 16.7727 106.728 17.1342 106.8 17.4233C106.872 17.7125 106.944 18.0017 107.161 18.2909C107.377 18.5801 107.665 18.797 108.098 19.0139C108.603 19.303 109.108 19.3753 109.685 19.3753C110.189 19.3753 110.622 19.2307 110.91 18.9416C111.199 18.6524 111.632 18.1463 111.992 17.2787L113.579 14.0977C113.795 13.5916 113.939 13.3025 113.867 13.0856C113.795 12.8687 113.651 12.6518 113.29 12.5072L112.93 12.3626Z" fill="black" stroke="#2F2F2F" stroke-width="0.1064"/>
<path d="M116.535 24.5082L116.391 24.7251L113.362 22.4839L113.506 22.2671L113.723 22.4839C114.011 22.7008 114.3 22.7731 114.516 22.7008C114.66 22.6285 114.949 22.4116 115.237 21.9779L118.554 17.4232C118.843 17.0617 118.987 16.8448 118.987 16.7003C118.987 16.5557 118.987 16.4834 118.915 16.3388C118.843 16.1219 118.699 15.9773 118.554 15.8327L118.338 15.6158L118.482 15.3989L121.511 17.6401L121.367 17.857L121.078 17.6401C120.79 17.4232 120.501 17.3509 120.285 17.4232C120.141 17.4955 119.852 17.7124 119.564 18.1462L116.247 22.7008C115.958 23.0623 115.814 23.2792 115.814 23.4238C115.814 23.5684 115.814 23.6407 115.886 23.7853C115.958 24.0022 116.102 24.1468 116.247 24.2913L116.535 24.5082Z" fill="black" stroke="#2F2F2F" stroke-width="0.1064"/>
<path d="M124.828 29.4245L124.972 29.6414L122.737 30.7981L117.905 25.9543L118.049 25.8097L118.266 26.0266C118.554 26.3157 118.771 26.388 119.059 26.3157C119.203 26.3157 119.492 26.0988 119.852 25.7374L123.819 21.7611C124.179 21.3996 124.395 21.1104 124.395 20.8935C124.395 20.6043 124.323 20.3875 124.035 20.1706L123.819 19.9537L123.963 19.8091L126.775 22.6286L126.631 22.7732C126.27 22.4117 126.054 22.2672 125.838 22.1949C125.621 22.1226 125.477 22.1226 125.333 22.1226C125.189 22.1949 124.9 22.3394 124.54 22.7732L120.646 26.6049C120.429 26.8218 120.213 27.0387 120.213 27.1833C120.213 27.2556 120.213 27.4002 120.213 27.4725C120.285 27.5448 120.501 27.834 120.862 28.2677L121.295 28.7015C121.799 29.2076 122.16 29.4968 122.376 29.6414C122.665 29.7859 122.953 29.7859 123.242 29.7859C123.819 29.7137 124.251 29.6414 124.828 29.4245Z" fill="black" stroke="#2F2F2F" stroke-width="0.1064"/>
<path d="M124.251 32.3887L124.468 32.2441L124.612 32.5333C124.828 32.8225 125.045 33.0394 125.333 33.0394C125.477 33.0394 125.766 32.8948 126.198 32.6779L130.886 29.6414C131.318 29.3523 131.607 29.1354 131.607 28.9185C131.679 28.7016 131.607 28.4124 131.463 28.1232L131.318 27.834L131.535 27.6895L133.482 30.7259C134.203 31.8103 134.636 32.7502 134.78 33.4731C134.924 34.1961 134.78 34.9191 134.419 35.642C134.059 36.365 133.482 36.9434 132.761 37.4494C131.751 38.1001 130.669 38.317 129.588 38.1724C128.362 37.9555 127.28 37.1602 126.343 35.7143L124.251 32.3887ZM126.198 34.1238C126.415 34.6299 126.631 35.0637 126.775 35.3528C127.352 36.2204 128.073 36.7265 129.011 36.8711C129.948 37.0157 130.958 36.7988 131.895 36.1481C132.905 35.4974 133.482 34.7022 133.77 33.7623C133.987 32.8225 133.842 31.9549 133.266 31.0151C133.049 30.6536 132.761 30.3644 132.4 30.0029L126.198 34.1238Z" fill="black" stroke="#2F2F2F" stroke-width="0.1064"/>
<path d="M42.3306 99.0457L40.8883 97.0938L42.4027 92.2499C42.2584 92.1053 42.1863 91.8884 42.0421 91.8161C42.0421 91.7438 41.97 91.7438 41.97 91.6715C41.8979 91.5992 41.8979 91.5269 41.8258 91.5269L39.8066 92.9729C39.3739 93.2621 39.1576 93.5512 39.0855 93.6958C39.0133 93.9127 39.0855 94.2019 39.3018 94.4911L39.5181 94.7803L39.3018 94.9249L37.0663 91.8161L37.2826 91.6715L37.499 91.9607C37.7153 92.2499 38.0038 92.3945 38.2922 92.3945C38.4364 92.3945 38.7249 92.2499 39.1576 91.9607L43.7007 88.6351C44.1334 88.3459 44.3497 88.0567 44.4218 87.9121C44.494 87.6952 44.4219 87.4061 44.2055 87.1169L43.9892 86.8277L44.2055 86.6831L46.1526 89.3581C46.7295 90.1533 47.09 90.7317 47.2343 91.1655C47.3785 91.5992 47.4506 92.1053 47.3064 92.5391C47.2343 92.9729 46.9458 93.4067 46.5131 93.6958C46.0805 93.985 45.5757 94.1296 45.0709 94.0573C44.5661 93.985 43.9892 93.6958 43.4123 93.1898L42.4748 96.1539C42.2584 96.8046 42.1863 97.3829 42.1863 97.7444C42.1863 98.1059 42.3306 98.4674 42.619 98.9012L42.3306 99.0457ZM42.1863 91.2378C42.2584 91.3101 42.2584 91.3824 42.3306 91.3824C42.3306 91.4547 42.4027 91.4546 42.4027 91.5269C42.9075 92.2499 43.4123 92.6114 43.9892 92.756C44.5661 92.9006 44.9988 92.8283 45.5036 92.4668C45.9362 92.1776 46.2247 91.7438 46.2968 91.2378C46.3689 90.7317 46.2247 90.2979 45.8641 89.7918C45.7199 89.5749 45.5036 89.3581 45.143 88.9966L42.1863 91.2378Z" fill="black" stroke="black" stroke-width="0.1064"/>
<path d="M52.3543 97.5275L50.0467 100.058L51.4889 101.359C51.8495 101.721 52.2101 101.865 52.4264 101.865C52.7148 101.865 53.0754 101.721 53.436 101.359L53.6523 101.504L51.6332 103.745L51.4168 103.6C51.6332 103.239 51.7774 103.022 51.8495 102.877C51.9216 102.733 51.8495 102.516 51.7774 102.371C51.7053 102.154 51.4889 101.938 51.2726 101.721L49.8303 100.419L47.9554 102.588C47.6669 102.877 47.5227 103.094 47.5227 103.167C47.5227 103.239 47.5227 103.311 47.5227 103.456C47.5227 103.6 47.6669 103.673 47.8833 103.817L49.0371 104.829C49.3976 105.191 49.6861 105.408 49.9024 105.48C50.1188 105.552 50.4072 105.625 50.6957 105.625C51.0562 105.625 51.561 105.48 52.1379 105.263L52.3543 105.408L50.3351 106.492L45.1429 101.865L45.2872 101.721L45.5035 101.938C45.6477 102.082 45.8641 102.154 46.0804 102.227C46.2246 102.299 46.3689 102.227 46.5131 102.154C46.6573 102.082 46.8737 101.865 47.1621 101.576L50.912 97.3829C51.2726 96.9491 51.4889 96.6599 51.4889 96.5153C51.4889 96.2985 51.3447 96.0093 51.0562 95.7924L50.8399 95.5755L50.9841 95.4309L56.1763 100.058L54.9504 101.576L54.734 101.431C54.9504 100.998 55.0946 100.709 55.1667 100.492C55.1667 100.275 55.1667 100.058 55.0225 99.841C54.9504 99.6964 54.734 99.4072 54.3735 99.118L52.3543 97.5275Z" fill="black" stroke="black" stroke-width="0.1064"/>
<path d="M58.4119 111.987L58.8446 103.89L56.1043 109.023C55.8158 109.529 55.7437 109.818 55.8158 109.962C55.8879 110.179 56.0321 110.396 56.3927 110.541L56.6812 110.685L56.5369 110.902L53.7966 109.384L53.9409 109.167L54.2293 109.312C54.5899 109.529 54.8783 109.529 55.0947 109.384C55.2389 109.312 55.4552 109.023 55.6716 108.661L58.4119 103.673C58.6282 103.311 58.7003 103.094 58.7003 102.877C58.7003 102.733 58.6282 102.588 58.5561 102.444C58.484 102.299 58.2677 102.154 57.9071 101.938L58.0513 101.721L60.2868 102.95L59.7099 110.613L65.7674 106.131L68.003 107.36L67.8587 107.577L67.5703 107.432C67.2097 107.215 66.9213 107.215 66.7049 107.36C66.5607 107.432 66.3443 107.649 66.128 108.083L63.3877 113.071C63.0992 113.577 63.0271 113.866 63.0992 114.011C63.1714 114.228 63.3156 114.445 63.6762 114.589L63.9646 114.734L63.8204 114.951L60.4311 113.143L60.5753 112.927L60.8637 113.071C61.2243 113.288 61.5128 113.288 61.7291 113.143C61.8733 113.071 62.0897 112.854 62.306 112.421L65.0463 107.287L58.484 112.059L58.4119 111.987Z" fill="black" stroke="black" stroke-width="0.1064"/>
<path d="M74.0605 108.733C75.2143 109.023 76.0797 109.673 76.6566 110.758C77.3056 111.77 77.4498 112.927 77.0893 114.228C76.7287 115.529 76.0797 116.469 74.998 117.12C73.9163 117.77 72.8346 117.915 71.6086 117.626C70.3827 117.337 69.5174 116.614 68.9404 115.602C68.3635 114.589 68.2193 113.36 68.5799 112.059C68.9404 110.685 69.6616 109.746 70.8154 109.167C71.8971 108.589 72.9067 108.444 74.0605 108.733ZM73.8442 109.167C73.0509 108.95 72.4019 109.095 71.7529 109.529C70.9596 110.107 70.4548 111.047 70.0943 112.348C69.7337 113.722 69.7337 114.879 70.1664 115.746C70.4548 116.397 71.0317 116.903 71.825 117.048C72.6182 117.264 73.4115 117.12 74.0605 116.614C74.7816 116.108 75.2864 115.24 75.647 113.866C76.0076 112.421 76.0076 111.264 75.5749 110.396C75.2143 109.89 74.6374 109.384 73.8442 109.167Z" fill="black" stroke="black" stroke-width="0.1064"/>
<path d="M79.8296 119.072V118.855H80.1902C80.5507 118.855 80.8392 118.783 80.9834 118.493C81.0555 118.349 81.1276 118.06 81.1276 117.554L81.344 111.914C81.344 111.336 81.344 111.047 81.1997 110.902C81.0555 110.685 80.7671 110.613 80.4065 110.613H80.0459V110.396L83.7237 110.541C85.0939 110.613 86.1035 110.758 86.7525 111.119C87.4736 111.408 87.9784 111.914 88.4111 112.637C88.8438 113.36 88.988 114.156 88.988 115.023C88.9159 116.252 88.5553 117.264 87.7621 117.987C86.8967 118.855 85.5266 119.289 83.7958 119.216L79.8296 119.072ZM82.3536 118.493C82.9305 118.638 83.3632 118.71 83.7958 118.71C84.8054 118.71 85.6708 118.421 86.3919 117.77C87.1131 117.12 87.4736 116.18 87.4736 114.951C87.5457 113.722 87.1852 112.782 86.5361 112.059C85.8871 111.336 85.0218 110.975 83.9401 110.902C83.5074 110.902 83.0747 110.902 82.5699 111.047L82.3536 118.493Z" fill="black" stroke="black" stroke-width="0.1064"/>
<path d="M93.7474 110.541L94.3243 113.939L96.2714 113.577C96.7762 113.505 97.1367 113.36 97.281 113.143C97.4973 112.927 97.5694 112.565 97.4973 112.059L97.7137 111.987L98.2185 114.951L98.0021 115.023C97.8579 114.589 97.7858 114.373 97.7137 114.228C97.6415 114.083 97.4252 114.011 97.281 113.939C97.0646 113.866 96.7762 113.866 96.4156 113.939L94.4686 114.3L94.9733 117.12C95.0455 117.481 95.1176 117.698 95.1176 117.77C95.1897 117.843 95.2618 117.915 95.3339 117.915C95.406 117.915 95.6224 117.915 95.8387 117.915L97.3531 117.626C97.8579 117.554 98.2185 117.409 98.4348 117.337C98.6511 117.264 98.8675 117.047 99.0117 116.831C99.228 116.541 99.4444 116.108 99.6607 115.529L99.9492 115.457L99.5165 117.843L92.6657 118.999L92.5936 118.783L92.8821 118.71C93.0984 118.638 93.3147 118.566 93.459 118.493C93.6032 118.421 93.6753 118.277 93.6753 118.132C93.6753 117.987 93.6753 117.698 93.6032 117.264L92.6657 111.698C92.5936 111.119 92.4494 110.83 92.3052 110.685C92.0888 110.541 91.8725 110.541 91.4398 110.541L91.1513 110.613L91.0792 110.396L97.93 109.24L98.3627 111.119L98.0742 111.191C97.93 110.758 97.7137 110.469 97.6415 110.324C97.4973 110.179 97.281 110.107 97.0646 110.035C96.8483 110.035 96.5598 110.035 96.1272 110.107L93.7474 110.541Z" fill="black" stroke="black" stroke-width="0.1064"/>
<path d="M110.045 111.77L110.261 111.697L110.406 114.156L103.915 116.686L103.843 116.469L104.132 116.324C104.492 116.18 104.709 115.963 104.781 115.674C104.853 115.529 104.781 115.168 104.564 114.734L102.545 109.529C102.329 109.023 102.185 108.733 101.968 108.661C101.752 108.516 101.464 108.589 101.175 108.661L100.887 108.806L100.815 108.589L104.637 107.143L104.709 107.36C104.276 107.504 103.988 107.721 103.843 107.866C103.699 108.01 103.627 108.155 103.627 108.3C103.627 108.444 103.699 108.806 103.915 109.239L105.863 114.372C106.007 114.734 106.079 114.951 106.223 115.023C106.295 115.095 106.439 115.095 106.512 115.095C106.656 115.095 106.944 115.023 107.521 114.806L108.098 114.589C108.747 114.372 109.18 114.083 109.396 113.939C109.612 113.722 109.829 113.505 109.901 113.143C109.901 112.782 109.973 112.348 110.045 111.77Z" fill="black" stroke="black" stroke-width="0.1064"/>
<path d="M117.617 109.963L117.761 110.179L114.444 112.131L114.3 111.915L114.588 111.77C114.877 111.553 115.093 111.336 115.093 111.119C115.093 110.975 115.021 110.613 114.732 110.179L111.848 105.336C111.632 104.974 111.415 104.685 111.343 104.613C111.271 104.54 111.127 104.54 110.982 104.54C110.766 104.54 110.55 104.613 110.406 104.685L110.117 104.83L109.973 104.613L113.29 102.661L113.434 102.878L113.146 103.022C112.857 103.239 112.641 103.456 112.641 103.673C112.641 103.817 112.713 104.179 113.002 104.613L115.886 109.456C116.103 109.818 116.319 110.107 116.391 110.179C116.463 110.252 116.607 110.252 116.752 110.252C116.968 110.252 117.184 110.179 117.328 110.107L117.617 109.963Z" fill="black" stroke="black" stroke-width="0.1064"/>
<path d="M115.309 101.576L117.112 99.9855L125.549 101.215L122.232 97.4551C121.872 97.0213 121.583 96.8767 121.439 96.8044C121.222 96.8044 120.934 96.8767 120.646 97.0936L120.429 97.3105L120.285 97.1659L122.665 95.0693L122.809 95.2139L122.593 95.4308C122.304 95.6477 122.16 95.9369 122.232 96.2261C122.232 96.3707 122.448 96.6598 122.737 97.0213L127.568 102.516L127.424 102.66L118.338 101.359L121.872 105.408C122.232 105.841 122.521 105.986 122.665 106.058C122.881 106.058 123.17 105.986 123.458 105.769L123.674 105.552L123.819 105.697L121.439 107.793L121.295 107.649L121.511 107.432C121.799 107.143 121.944 106.926 121.872 106.637C121.872 106.492 121.655 106.203 121.367 105.841L117.328 101.287C116.968 101.215 116.679 101.215 116.463 101.215C116.319 101.215 116.102 101.287 115.814 101.431C115.67 101.504 115.526 101.576 115.309 101.793V101.576Z" fill="black" stroke="black" stroke-width="0.1064"/>
<path d="M128.218 87.1169L130.597 88.5629L130.453 88.7798C129.732 88.5629 129.155 88.4906 128.65 88.6352C127.929 88.7798 127.352 89.2135 126.848 89.8642C126.199 90.804 126.054 91.7439 126.415 92.756C126.703 93.6236 127.28 94.3466 128.146 94.9249C128.795 95.431 129.516 95.7202 130.309 95.8648C131.03 96.0094 131.751 95.9371 132.256 95.6479C132.833 95.431 133.266 95.0695 133.626 94.5634C133.843 94.2743 133.987 93.9851 134.059 93.6959C134.203 93.4067 134.275 93.1175 134.275 92.756L132.256 91.3101C131.895 91.0209 131.679 90.9486 131.535 90.8763C131.391 90.8763 131.246 90.8763 131.102 90.9486C130.958 91.0209 130.814 91.2378 130.597 91.527L130.381 91.3824L132.4 88.5629L132.617 88.7075L132.545 88.8521C132.328 89.1412 132.328 89.3581 132.4 89.6473C132.472 89.7919 132.689 90.0088 133.049 90.298L135.213 91.8162C135.141 92.3946 134.996 92.9006 134.78 93.4067C134.564 93.9128 134.347 94.3465 133.987 94.8526C132.977 96.2985 131.751 97.0215 130.381 97.1661C129.299 97.2384 128.362 96.9492 127.497 96.3708C126.848 95.9371 126.415 95.3587 126.054 94.6357C125.622 93.7682 125.477 92.9006 125.55 92.0331C125.622 91.3101 125.91 90.5149 126.487 89.7919C126.703 89.5027 126.848 89.2858 127.064 89.1412C127.28 88.9243 127.569 88.7075 128.001 88.4183C128.218 88.2737 128.362 88.1291 128.434 88.0568C128.506 87.9845 128.506 87.9122 128.434 87.8399C128.434 87.7676 128.29 87.623 128.146 87.4784L128.218 87.1169Z" fill="black" stroke="black" stroke-width="0.1064"/>
<path d="M157.496 46.9202H15.5043C7.28333 46.9202 0.576782 53.9329 0.576782 62.5361C0.576782 71.1394 7.28333 78.1521 15.5043 78.1521H157.423C165.644 78.1521 172.351 71.1394 172.351 62.5361C172.423 53.8606 165.716 46.9202 157.496 46.9202Z" fill="#FFC92E" stroke="black" stroke-width="1.5912"/>
<path d="M7.78818 53.21H12.764L24.0858 66.8016V56.391C24.0858 55.2343 23.9416 54.5836 23.7252 54.2944C23.3647 53.9329 22.8599 53.716 22.1387 53.716H21.4897V53.21H27.9799V53.716H27.3309C26.5377 53.716 25.9608 53.9329 25.6723 54.439C25.456 54.7282 25.3838 55.3788 25.3838 56.391V71.7178H24.8791L12.6919 57.114V68.3199C12.6919 69.4766 12.8361 70.1273 13.0525 70.4164C13.413 70.7779 13.9178 70.9948 14.639 70.9948H15.288V71.5009H8.79777V70.9948H9.44679C10.24 70.9948 10.8169 70.7779 11.1054 70.2718C11.3217 69.9827 11.3938 69.332 11.3938 68.3199V55.668C10.8891 55.0174 10.4564 54.6559 10.1679 54.439C9.87947 54.2221 9.44679 54.0775 8.94199 53.9329C8.65354 53.8606 8.29297 53.7883 7.71606 53.7883V53.21H7.78818Z" fill="black"/>
<path d="M37.3547 52.8484C39.7344 52.8484 41.8257 53.7159 43.6285 55.5233C45.3592 57.3308 46.2967 59.5719 46.2967 62.2469C46.2967 64.9941 45.4314 67.3076 43.6285 69.115C41.8257 70.9224 39.6623 71.8623 37.1383 71.8623C34.6144 71.8623 32.4509 70.9947 30.7202 69.1873C28.9895 67.3799 28.1241 65.0664 28.1241 62.2469C28.1241 59.355 29.1337 57.0416 31.1529 55.2342C32.8115 53.6436 34.9028 52.8484 37.3547 52.8484ZM37.0662 53.7882C35.4076 53.7882 34.0374 54.3666 33.1 55.5956C31.874 57.1139 31.225 59.2827 31.225 62.1746C31.225 65.1387 31.874 67.4522 33.1721 69.0427C34.1817 70.2718 35.4797 70.8501 37.1383 70.8501C38.869 70.8501 40.3113 70.1995 41.4651 68.8258C42.6189 67.5245 43.1958 65.4279 43.1958 62.5361C43.1958 59.4273 42.5468 57.1139 41.3209 55.5956C40.2392 54.3666 38.869 53.7882 37.0662 53.7882Z" fill="black"/>
<path d="M64.5415 71.4286H59.5656L53.2918 62.8976C52.8591 62.8976 52.4985 62.8976 52.2101 62.8976H51.8495C51.7053 62.8976 51.5611 62.8976 51.4168 62.8976V68.1753C51.4168 69.332 51.5611 70.055 51.7774 70.3441C52.138 70.7056 52.6428 70.9225 53.2918 70.9225H54.0129V71.4286H46.0804V70.9225H46.8016C47.5948 70.9225 48.0996 70.7056 48.4602 70.1995C48.6765 69.9104 48.7486 69.2597 48.7486 68.2476V56.4633C48.7486 55.3065 48.6044 54.5836 48.3881 54.2944C48.0275 53.9329 47.5227 53.716 46.8016 53.716H46.0804V53.21H52.8591C54.8062 53.21 56.2484 53.3546 57.1859 53.6437C58.1234 53.9329 58.9166 54.439 59.5656 55.2343C60.2147 55.9572 60.5752 56.8971 60.5752 57.9092C60.5752 58.9936 60.2147 60.0058 59.4214 60.8011C58.7003 61.5963 57.5465 62.1747 55.96 62.5362L59.782 67.7415C60.6473 68.9705 61.4406 69.7658 62.0175 70.1273C62.6665 70.4887 63.4598 70.7779 64.4694 70.8502V71.4286H64.5415ZM51.4168 62.1024C51.5611 62.1024 51.7053 62.1024 51.8495 62.1024H52.138C53.8687 62.1024 55.2388 61.7409 56.1042 61.0179C56.9696 60.295 57.4744 59.2828 57.4744 58.1261C57.4744 56.9694 57.1138 56.1018 56.3927 55.3788C55.6715 54.6559 54.734 54.2944 53.5081 54.2944C53.0033 54.2944 52.2822 54.3667 51.3447 54.5836V62.1024H51.4168Z" fill="black"/>
<path d="M75.1421 71.4286L68.0029 56.1018V68.2476C68.0029 69.4043 68.1471 70.055 68.3634 70.3441C68.724 70.7056 69.2288 70.9225 69.9499 70.9225H70.5989V71.4286H64.1087V70.9225H64.7578C65.551 70.9225 66.1279 70.7056 66.4164 70.1995C66.6327 69.9104 66.7048 69.2597 66.7048 68.2476V56.391C66.7048 55.5957 66.6327 55.0174 66.4164 54.6559C66.2721 54.3667 66.0558 54.1498 65.6952 54.0052C65.3347 53.7883 64.8299 53.716 64.0366 53.716V53.21H69.3009L76.0074 67.38L82.5698 53.21H87.834V53.716H87.185C86.3918 53.716 85.8149 53.9329 85.5264 54.439C85.3101 54.7282 85.238 55.3788 85.238 56.391V68.2476C85.238 69.4043 85.3822 70.055 85.5985 70.3441C85.9591 70.7056 86.4639 70.9225 87.185 70.9225H87.834V71.4286H79.9016V70.9225H80.5506C81.3438 70.9225 81.9207 70.7056 82.2092 70.1995C82.4255 69.9104 82.4977 69.2597 82.4977 68.2476V56.1018L75.3584 71.4286H75.1421Z" fill="black"/>
<path d="M100.742 65.3556H93.5311L92.3052 68.2474C92.0167 68.9704 91.8725 69.4765 91.8725 69.8379C91.8725 70.1271 92.0167 70.344 92.3052 70.5609C92.5936 70.7778 93.1705 70.9224 94.0359 70.9947V71.5008H88.1947V70.9947C88.9879 70.8501 89.4927 70.7055 89.7091 70.4886C90.1418 70.0548 90.7187 69.1873 91.2235 67.886L97.7858 52.9207H98.2906L104.709 68.0305C105.213 69.2596 105.718 70.0548 106.151 70.4163C106.584 70.7778 107.16 70.9947 107.954 70.9947V71.5008H100.67V70.9947C101.391 70.9224 101.896 70.8501 102.185 70.6332C102.473 70.4163 102.545 70.1994 102.545 69.9102C102.545 69.5488 102.329 68.8981 101.968 68.0305L100.742 65.3556ZM100.31 64.3434L97.2089 56.9692L94.0359 64.3434H100.31Z" fill="black"/>
<path d="M107.16 53.21H112.208L123.53 66.8016V56.391C123.53 55.2343 123.386 54.5836 123.17 54.2944C122.809 53.9329 122.304 53.716 121.583 53.716H120.934V53.21H127.424V53.716H126.775C125.982 53.716 125.405 53.9329 125.117 54.439C124.9 54.7282 124.828 55.3788 124.828 56.391V71.7178H124.323L111.992 57.114V68.3199C111.992 69.4766 112.136 70.1273 112.353 70.4164C112.713 70.7779 113.218 70.9948 113.939 70.9948H114.588V71.5009H108.098V70.9948H108.747C109.54 70.9948 110.117 70.7779 110.406 70.2718C110.622 69.9827 110.694 69.332 110.694 68.3199V55.668C110.189 55.0174 109.757 54.6559 109.468 54.439C109.18 54.2221 108.819 54.0775 108.242 53.9329C107.954 53.8606 107.593 53.7883 107.016 53.7883V53.21H107.16Z" fill="black"/>
<path d="M127.641 71.4286V70.9225H128.362C129.155 70.9225 129.66 70.7056 130.02 70.1995C130.237 69.9104 130.309 69.2597 130.309 68.1753V56.4633C130.309 55.3065 130.165 54.5836 129.948 54.2944C129.588 53.9329 129.083 53.716 128.362 53.716H127.641V53.21H135.213C137.953 53.21 140.116 53.4991 141.559 54.1498C143.001 54.8005 144.155 55.8126 145.02 57.2585C145.885 58.7045 146.318 60.3673 146.318 62.247C146.318 64.7773 145.525 66.8739 143.938 68.609C142.208 70.4887 139.467 71.4286 135.934 71.4286H127.641ZM132.905 70.1273C134.059 70.3441 134.996 70.4887 135.789 70.4887C137.881 70.4887 139.684 69.7658 141.054 68.3198C142.424 66.8739 143.145 64.9219 143.145 62.3916C143.145 59.8612 142.424 57.9092 141.054 56.4633C139.684 55.0174 137.881 54.2944 135.717 54.2944C134.924 54.2944 133.987 54.439 132.905 54.6559V70.1273Z" fill="black"/>
<path d="M158 53.21H164.491V53.716H164.13C163.914 53.716 163.553 53.7883 163.12 54.0052C162.688 54.2221 162.255 54.5113 161.895 54.8728C161.534 55.2343 161.029 55.8849 160.524 56.7525L156.053 63.6206V68.2476C156.053 69.4043 156.198 70.055 156.414 70.3441C156.774 70.7056 157.279 70.9225 158.073 70.9225H158.649V71.4286H150.717V70.9225H151.366C152.159 70.9225 152.736 70.7056 153.025 70.1995C153.241 69.9104 153.313 69.2597 153.313 68.2476V63.9821L148.265 56.3187C147.688 55.4511 147.256 54.8728 147.039 54.6559C146.823 54.439 146.39 54.1498 145.741 53.8606C145.525 53.7883 145.308 53.716 144.948 53.716V53.21H152.88V53.716H152.448C152.015 53.716 151.654 53.7883 151.294 54.0052C150.933 54.2221 150.717 54.5113 150.717 54.8728C150.717 55.162 151.005 55.8126 151.582 56.6079L155.404 62.4639L159.082 56.8248C159.659 55.9572 159.875 55.3788 159.875 54.9451C159.875 54.6559 159.803 54.439 159.659 54.2944C159.515 54.0775 159.371 53.9329 159.082 53.8606C158.866 53.716 158.433 53.716 158 53.716V53.21Z" fill="black"/>
</g>
<defs>
<clipPath id="clip0_3:165">
<rect width="173" height="125" fill="white"/>
</clipPath>
</defs>
</svg>
