<svg xmlns="http://www.w3.org/2000/svg" xml:space="preserve" width="238" height="172" viewBox="0 0 1946 1404"><path fill="transparent" d="M1026 1h921c0 228.03 0 456.059-.384 684.458-.781-.304-1.473-.953-1.534-1.656-1.376-15.99-5.403-31.344-11.1-46.284-5.646-14.8-12.942-28.716-22.334-41.528-8.366-11.413-17.53-21.988-28.3-31.297-16.02-13.85-33.719-24.657-53.457-32.254-22.821-8.783-46.63-11.333-70.831-11.42-19.326-.07-38.652-.014-57.978-.014-14.328 0-28.657-.083-42.984.057-3.607.035-5.436-.689-6.63-4.715-5.005-16.87-9.967-33.802-16.123-50.272-7.728-20.677-15.887-41.258-25.149-61.284-16.985-36.724-37.399-71.551-60.686-104.692-21.507-30.607-45.11-59.515-71.331-86.127-16.298-16.54-33.522-32.27-51.27-47.252-17.334-14.634-35.418-28.484-53.965-41.555-31.697-22.34-65.004-42.153-100.537-57.835-22.628-9.987-45.505-19.51-68.695-28.094-27.74-10.269-56.368-17.762-85.386-23.564-15.745-3.148-31.532-6.21-47.418-8.489-13.912-1.994-27.994-2.804-41.987-4.265-1.03-.108-1.95-1.254-2.921-1.918M1 678V1c305.695 0 611.39 0 917.45.39-.313.785-.963 1.46-1.673 1.53-7.581.746-15.21 1.114-22.753 2.127-17.387 2.334-34.885 4.219-52.06 7.67-21.607 4.344-43.077 9.548-64.353 15.314-35.844 9.715-70.498 22.87-104.054 38.768-34.601 16.394-67.816 35.226-99.369 57.018-28.867 19.937-56.432 41.507-81.865 65.608-21.35 20.232-41.89 41.302-60.607 64.13-18.013 21.969-34.924 44.654-50.428 68.457-18.74 28.773-34.95 58.873-49.357 90.017-15.675 33.886-28.056 68.938-38.04 104.869-.847 3.05-2.29 4.163-5.561 4.18-40.126.219-80.253.427-120.373 1.056-8.552.134-17.194 1.374-25.597 3.076-33.678 6.824-62.717 22.821-86.766 47.088-10.192 10.284-19.072 22.142-27.075 34.258-12.75 19.301-20.608 40.804-24.65 63.657C3.396 672.894 1.98 675.408 1 678M1947 726v679c-306.696 0-613.392 0-920.452-.39.48-.792 1.293-1.45 2.173-1.556 19.71-2.368 39.489-4.256 59.131-7.09 33.236-4.795 65.766-12.921 97.733-23.078 39.99-12.705 78.91-28.177 115.64-48.62 20.455-11.383 41.107-22.637 60.423-35.782 22.58-15.366 44.162-32.279 65.512-49.352 20.757-16.6 40.456-34.503 57.857-54.707 16.985-19.722 34.3-39.202 50.419-59.618 23.516-29.787 43.492-61.998 60.879-95.72 8.834-17.134 16.903-34.69 24.695-52.33 11.695-26.474 21.242-53.763 28.877-81.686 1.082-3.955 2.703-5.186 6.784-5.169 38.322.16 76.649.458 114.962-.112 12.5-.185 25.21-1.72 37.4-4.502 39.725-9.07 71.898-30.772 97.166-62.31 20.413-25.477 33.043-54.726 37.93-87.18.501-3.334 1.892-6.535 2.871-9.798M919 1405H1c0-223.361 0-446.723.376-670.463.795.624 1.433 1.59 1.6 2.632 2.627 16.333 7.327 32.094 14.223 47.073 15.698 34.1 39.347 61.322 71.53 80.936 26.272 16.012 54.837 24.426 85.538 24.73 37.991.375 75.989.182 113.982-.03 4.647-.026 6.53 1.717 7.562 5.827 1.374 5.472 2.988 10.892 4.703 16.269 8.999 28.21 19.302 55.902 31.765 82.81 14.632 31.59 30.929 62.249 50.244 91.204 10.95 16.417 22.316 32.617 34.465 48.156 12.653 16.183 25.683 32.22 39.976 46.933 18.983 19.54 38.63 38.577 59.324 56.27 20.001 17.1 41.18 32.959 62.765 48.039 31.81 22.224 65.645 41.194 101.287 56.62 22.544 9.756 45.26 19.347 68.526 27.138 23.41 7.841 47.439 14.042 71.496 19.681 18.828 4.414 38.066 7.195 57.214 10.087 12.752 1.925 25.671 2.73 38.5 4.17 1.034.115 1.952 1.254 2.924 1.918"/><path fill="#242020" d="M919.469 1405c-1.44-.664-2.36-1.803-3.392-1.919-12.83-1.439-25.75-2.244-38.5-4.17-19.15-2.89-38.387-5.672-57.215-10.086-24.057-5.64-48.085-11.84-71.496-19.68-23.266-7.792-45.982-17.383-68.526-27.14-35.642-15.425-69.476-34.395-101.287-56.62-21.586-15.08-42.764-30.937-62.765-48.038-20.694-17.693-40.341-36.73-59.324-56.27-14.293-14.713-27.323-30.75-39.976-46.933-12.149-15.539-23.515-31.74-34.465-48.156-19.315-28.955-35.612-59.614-50.244-91.205-12.463-26.907-22.766-54.599-31.765-82.81-1.715-5.376-3.329-10.796-4.703-16.268-1.032-4.11-2.915-5.853-7.562-5.827-37.993.212-75.99.405-113.982.03-30.7-.304-59.266-8.718-85.538-24.73-32.183-19.614-55.832-46.836-71.53-80.936-6.896-14.98-11.596-30.74-14.223-47.073-.167-1.042-.805-2.008-1.6-3.09C1 715.646 1 697.292 1 678.47c.98-3.06 2.395-5.575 2.87-8.256 4.04-22.853 11.9-44.356 24.649-63.657 8.003-12.116 16.883-23.974 27.075-34.258 24.049-24.267 53.088-40.264 86.766-47.088 8.403-1.702 17.045-2.942 25.597-3.076 40.12-.629 80.247-.837 120.373-1.055 3.27-.018 4.714-1.131 5.562-4.181 9.983-35.931 22.364-70.983 38.04-104.87 14.405-31.143 30.615-61.243 49.356-90.016 15.504-23.803 32.415-46.488 50.428-68.456 18.718-22.829 39.256-43.899 60.607-64.13 25.433-24.102 52.998-45.672 81.865-65.61 31.553-21.791 64.768-40.623 99.37-57.017 33.555-15.899 68.21-29.053 104.053-38.768 21.276-5.766 42.746-10.97 64.353-15.313 17.175-3.452 34.673-5.337 52.06-7.671 7.543-1.013 15.172-1.381 22.753-2.127.71-.07 1.36-.745 2.13-1.53C954.354 1 989.708 1 1025.531 1c1.44.664 2.36 1.81 3.39 1.918 13.993 1.461 28.075 2.27 41.987 4.265 15.886 2.278 31.673 5.34 47.418 8.489 29.018 5.802 57.646 13.295 85.386 23.564 23.19 8.584 46.067 18.107 68.695 28.094 35.533 15.682 68.84 35.495 100.537 57.835 18.547 13.071 36.631 26.921 53.966 41.555 17.747 14.981 34.971 30.711 51.269 47.252 26.221 26.612 49.824 55.52 71.33 86.127 23.288 33.14 43.702 67.968 60.687 104.692 9.262 20.026 17.421 40.607 25.15 61.284 6.155 16.47 11.117 33.401 16.121 50.272 1.195 4.026 3.024 4.75 6.631 4.715 14.327-.14 28.656-.057 42.984-.057 19.326 0 38.652-.056 57.978.014 24.202.087 48.01 2.637 70.83 11.42 19.739 7.597 37.438 18.405 53.459 32.254 10.768 9.309 19.933 19.884 28.3 31.297 9.39 12.812 16.687 26.728 22.332 41.528 5.698 14.94 9.725 30.295 11.101 46.284.06.703.753 1.352 1.534 2.112.384 13.107.384 26.128.384 39.617-.979 3.732-2.37 6.933-2.872 10.268-4.886 32.453-17.516 61.702-37.929 87.18-25.268 31.537-57.44 53.24-97.167 62.309a181.3 181.3 0 0 1-37.399 4.502c-38.313.57-76.64.273-114.962.112-4.081-.017-5.702 1.214-6.784 5.169-7.635 27.923-17.182 55.212-28.877 81.687-7.792 17.64-15.86 35.195-24.695 52.33-17.387 33.72-37.363 65.932-60.88 95.719-16.118 20.416-33.433 39.896-50.418 59.618-17.4 20.204-37.1 38.107-57.857 54.707-21.35 17.073-42.931 33.986-65.512 49.352-19.316 13.145-39.968 24.399-60.423 35.782-36.73 20.443-75.65 35.915-115.64 48.62-31.967 10.157-64.497 18.283-97.733 23.078-19.642 2.834-39.42 4.722-59.131 7.09-.88.106-1.693.764-2.629 1.555-35.446.391-70.8.391-106.623.391m338.32-1323.272c-76.33-35.02-156.477-55.042-240.209-60.513-64.028-4.183-127.647-.218-190.224 14.1C636.74 78.93 489.811 184.258 386.562 350.192c-35.657 57.305-60.768 119.295-77.596 184.62-1.21 4.702-3.093 6.187-8.02 6.16-41.163-.223-82.328-.1-123.493-.136-25.15-.023-48.822 5.912-70.973 17.713-61.71 32.878-95.246 101.88-84.664 173.444 11.076 74.912 74.401 140.225 160.853 138.944 39.99-.593 79.995-.101 119.994-.101h5.897c41.504 154.86 124.753 281.7 252.685 377.915 127.967 96.24 272.935 141.598 432.863 136.968 140.397-4.064 267.987-47.76 381.532-130.537 132.735-96.767 217.96-226.4 262.138-384.346h5.764c41.498 0 82.996.05 124.495-.018 28.791-.046 55.651-7.293 80.301-22.27 63.642-38.67 93.356-117.369 72.203-190.465-19.713-68.121-81.645-119.166-156.191-117.405-39.977.944-79.993.167-119.992.167h-6.178c-25.472-101.226-70.904-192.2-137.345-272.453-66.62-80.468-147.487-142.557-243.047-186.664"/><path fill="#DBB968" d="M1258.14 81.869c95.208 43.966 176.075 106.055 242.695 186.523 66.441 80.252 111.873 171.227 137.345 272.453h6.178c39.999 0 80.015.777 119.992-.167 74.546-1.761 136.478 49.284 156.191 117.405 21.153 73.096-8.561 151.794-72.203 190.464-24.65 14.978-51.51 22.225-80.301 22.271-41.499.067-82.997.018-124.495.018h-5.764c-44.177 157.945-129.403 287.58-262.138 384.346-113.545 82.777-241.135 126.473-381.532 130.537-159.928 4.63-304.896-40.728-432.863-136.968-127.932-96.215-211.18-223.055-252.685-377.915h-5.897c-39.999 0-80.004-.492-119.994.1-86.452 1.282-149.777-64.031-160.853-138.943C11.234 660.43 44.77 591.427 106.48 558.55c22.151-11.801 45.824-17.736 70.973-17.713 41.165.037 82.33-.087 123.494.137 4.926.026 6.808-1.46 8.02-6.16 16.827-65.326 41.938-127.316 77.595-184.621C489.811 184.258 636.74 78.93 827.356 35.315c62.577-14.318 126.196-18.283 190.224-14.1 83.732 5.47 163.88 25.493 240.56 60.654m-155.17 143.685c-55.504-14.902-111.87-20.225-169.204-15.726-37.671 2.956-74.573 9.812-110.518 21.359-99.54 31.974-181.274 89.486-245.015 172.331-26.635 34.62-48.608 72.043-64.244 112.952-2.913 7.62-4.455 15.765-6.769 24.17h932.175c-.696-2.816-1-5.303-1.914-7.541-6.91-16.927-12.935-34.308-21.104-50.612-41.184-82.198-100.79-147.996-178.338-197.41-41.72-26.585-86.51-46.345-135.07-59.523m204.488 842.41c59.44-54.92 103.713-119.862 131.133-196.782H506.774c.618 2.024.97 3.626 1.584 5.12 4.359 10.619 8.426 21.375 13.222 31.794 36.514 79.335 90.051 144.83 160.891 195.903 83.347 60.09 176.732 90.863 279.308 93.72 34.885.973 69.528-2.087 103.83-8.677 91.725-17.621 172.029-58.097 241.848-121.078M917.96 687.478l22.318-48.663c.832 1.25.92 2.225.92 3.201.005 42.822.03 85.643-.04 128.465-.008 4.478-.25 9.008-.952 13.423-1.384 8.707-6.177 13.142-14.903 14.14-3.936.45-7.914.538-12.234.813l.269 4.883h84.339v-4.886c-4.324-.282-8.48-.355-12.583-.862-8.384-1.038-12.985-5.188-14.267-13.516-.857-5.564-1.106-11.267-1.118-16.91q-.13-63.232-.002-126.464c.01-5.643.424-11.308 1.046-16.92.85-7.682 5.844-11.772 13.033-13.127 4.054-.765 8.27-.669 12.41-1 .459-.036.898-.324 1.393-.513v-4.523c-1.746-.092-3.211-.234-4.677-.236-15.663-.016-31.326.102-46.986-.096-3.514-.044-5.254 1.063-6.703 4.274-15.269 33.81-30.698 67.546-46.085 101.302-7.491 16.434-14.987 32.865-22.82 50.042-1.293-2.616-2.274-4.498-3.166-6.42-22.326-48.145-44.692-96.272-66.864-144.487-1.67-3.63-3.564-4.834-7.466-4.721-9.99.288-19.992.096-29.99.096H741.51c.093 2.104.16 3.615.224 5.028 3.894.437 7.209.725 10.498 1.195 9.903 1.414 15.511 7.03 16.697 16.955.513 4.29.803 8.635.809 12.955q.089 63.483 0 126.965c-.006 4.822-.315 9.66-.78 14.46-.912 9.435-6.194 14.716-15.66 15.752-3.765.412-7.566.499-11.475.74v4.981h68.838v-5.014c-4.27-.251-8.265-.308-12.216-.756-8.724-.988-13.225-5.162-14.584-13.725a80.5 80.5 0 0 1-.972-12.42c-.084-43.321-.078-86.643-.075-129.964 0-.979.258-1.957.515-3.785 1.102 2.25 1.783 3.568 2.402 4.916 23.737 51.706 47.445 103.426 71.283 155.085 1.037 2.247 2.94 5.028 5.016 5.658 3.931 1.193 3.983-3.146 5.029-5.413 16.939-36.704 33.76-73.463 50.9-110.908m524.23 113.101c-.665 4.242 2.371 3.45 4.75 3.45 28.166.01 56.332.163 84.496-.092 9.132-.083 18.34-.676 27.366-2.019 36.951-5.497 64.276-24.114 77.548-59.969 9.657-26.088 9.331-52.689-.524-78.718-8.482-22.4-23.042-40.052-45.862-48.711-11.368-4.314-23.764-7.63-35.822-8.091-36.61-1.403-73.282-1.197-109.93-1.588-.605-.006-1.213.36-2.076.632l.4 4.704c3.332 0 6.326-.172 9.295.03 11.733.796 17.1 5.931 18.32 17.572.433 4.134.74 8.303.745 12.457q.08 64.246-.001 128.493c-.005 4.154-.317 8.323-.764 12.455-1.215 11.21-6.313 16.039-17.698 17.16-3.383.334-6.743.898-10.243 2.235M593.166 757.5v-46.484c5.574 0 10.42.292 15.212-.09 4.108-.326 6.583 1.011 9.026 4.429 20.147 28.178 40.58 56.15 60.754 84.31 2.403 3.355 4.878 4.572 9.003 4.485 13.99-.292 27.99-.111 41.985-.111h5.21c.816-3.595.738-5.664-3.265-6.075-15.206-1.565-27.575-8.593-36.787-20.708-10.68-14.048-21.024-28.353-31.445-42.598-6.577-8.99-13.028-18.075-19.798-27.481 1.852-.518 3.34-.757 4.68-1.337 7.903-3.415 16.47-5.861 23.528-10.562 26.2-17.45 27.837-54.81 3.958-75.3-10.608-9.102-23.2-13.435-36.706-13.8-33.46-.905-66.942-.956-100.415-1.323-.443-.005-.89.331-1.426.545v4.754c3.103 0 5.916-.18 8.7.032 10.191.779 18.228 4.387 18.97 16.902.188 3.154.642 6.303.645 9.455.05 44.487.07 88.973.01 133.46-.006 4.478-.337 8.99-.939 13.428-1.124 8.295-6.358 13.451-14.678 14.557-4.099.546-8.258.642-12.664.961v4.701h85.304l-.448-4.799c-3.49-.175-6.649-.238-9.79-.508-11.968-1.03-16.954-5.868-17.863-17.887-.553-7.296-.527-14.636-.761-22.956M456.634 805.18c19.868-5.337 35.816-16.697 48.643-32.448 21.515-26.42 26.79-56.971 21.803-89.854-6.102-40.23-37.853-73.516-77.268-81.277-39.193-7.716-80.61 11.134-101.71 46.338-13.636 22.751-16.528 47.551-13.252 73.29 7.852 61.69 60.91 98.507 121.784 83.951m930.469-136.68v85.279c-1.948-2.307-2.925-3.429-3.865-4.582-38.303-47.008-76.586-94.032-114.973-140.97-1.3-1.589-3.632-3.273-5.507-3.301-16.491-.246-32.988-.132-49.484-.09-.606.002-1.212.362-2.073.636l.354 4.62c14.983-.134 26.888 5.658 35.72 17.263 1.745 2.294 3.106 5.565 3.118 8.392.193 44.155.154 88.31.108 132.465-.005 4.66-.145 9.344-.635 13.973-1.04 9.814-6.275 14.928-16.065 15.931-3.308.34-6.649.346-9.97.565-.433.029-.842.42-1.513.776l.236 4.231h69.337l-.34-4.857c-4.256-.265-8.244-.34-12.188-.794-8.712-1.003-13.214-5.085-14.652-13.67-.738-4.408-.995-8.942-1.003-13.42-.076-39.656-.052-79.313-.03-118.969 0-1.17.294-2.338.537-4.15 1.406 1.656 2.277 2.652 3.115 3.675 41.572 50.791 83.161 101.568 124.654 152.424 2.164 2.652 4.276 3.987 8.137 2.705v-5.702c0-53.32-.025-106.639.039-159.958.006-5.151.35-10.324.904-15.448.886-8.22 5.287-13.037 13.429-14.521 4.364-.796 8.856-.888 13.718-1.338l-.234-4.498h-69.056l.423 5.01c3.126 0 5.946-.157 8.744.026 11.84.777 17.354 5.107 18.265 16.85 1.04 13.42.566 26.96.75 41.447M287.39 795.117c2.424 2.967 4.984 5.836 7.23 8.931 2.02 2.78 4.34 3.97 8.171 2.443V800.8c0-52.988-.03-105.977.045-158.965.008-5.81.24-11.672 1.05-17.414 1.102-7.814 5.43-12.065 13.263-13.44 4.371-.768 8.86-.865 13.37-1.271v-4.583h-68.75v4.568c4.754.429 9.246.56 13.637 1.292 7.298 1.215 12.17 5.311 13.136 12.97.624 4.947 1.166 9.946 1.18 14.923.097 36.492.056 72.984.04 109.476 0 1.391-.185 2.782-.36 5.244-2.262-2.736-3.843-4.624-5.398-6.532-37.673-46.235-75.364-92.455-112.959-138.754-2.095-2.58-4.207-3.651-7.543-3.612-14.828.172-29.66.075-44.49.075h-4.983c0 1.85-.03 2.995.021 4.138.014.287.293.562.634 1.17 14.627-.125 26.546 5.94 35.455 17.664 1.551 2.04 2.757 4.953 2.766 7.468.164 45.156.144 90.313.08 135.47-.007 4.313-.35 8.655-.928 12.93-1.155 8.533-6.075 13.315-14.709 14.382-3.942.488-7.938.548-12.137.816v4.97h68.932l-.26-4.978c-4.442-.277-8.444-.32-12.39-.814-8.818-1.106-13.46-5.718-14.466-14.47-.57-4.952-.937-9.958-.947-14.94-.075-38.658-.044-77.316-.032-115.975 0-1.4.148-2.801.295-5.395 40.698 49.726 80.65 98.539 121.047 147.905m925.93 8.923 4.496-.243c.073-1.106.19-1.918.162-2.726-.027-.783-.203-1.56-.373-2.762-15.726.077-23.56-9.988-29.388-22.585-1.118-2.416-2.271-4.818-3.3-7.271-22.884-54.614-45.734-109.242-68.712-163.817-.756-1.795-2.524-3.83-4.266-4.405-3.489-1.153-3.798 2.398-4.69 4.48-18.14 42.354-36.14 84.769-54.338 127.098a1974 1974 0 0 1-22.184 49.64c-4.03 8.706-10.349 15.164-20.509 16.324-4.422.505-4.482 2.78-3.406 5.933h62.09v-4.998c-3.087-.456-6.046-.772-8.954-1.345-13.116-2.584-16.487-7.862-11.809-20.462 4.685-12.617 10.24-24.916 15.655-37.249.524-1.192 2.75-2.315 4.194-2.324 23.492-.142 46.986-.153 70.478.027 1.487.011 3.663 1.501 4.318 2.876 2.79 5.848 5.245 11.867 7.6 17.91 2.957 7.584 6.242 15.104 8.386 22.925 2.507 9.142-.838 13.968-9.883 16.178-1.768.432-3.601.825-5.406.833-4.306.02-5.044 2.066-3.621 5.963zm486.391-162.26c-2.647-4.985-5.686-9.806-7.835-14.997-2.355-5.689-.41-11.014 5.191-13.34 4.488-1.863 9.578-2.278 14.4-3.337l2.54-.56-.43-4.44h-84.797c-.09 1.117-.221 1.925-.202 2.73.016.64.214 1.276.321 1.855 12.213 2.184 21.695 8.09 28.492 18.507 20.018 30.68 40.243 61.227 60.281 91.895 1.003 1.535 1.39 3.718 1.415 5.607.136 9.997.169 19.998.033 29.995-.123 9.15.036 18.355-.924 27.43-1.029 9.733-6.305 14.12-16.19 15.057-3.577.339-7.174.442-10.777.653v4.805h84.645l-.488-5.13c-2.117 0-3.923.05-5.726-.008-16.237-.52-21.318-5.145-21.74-21.302-.477-18.319-.343-36.656-.252-54.984.01-2.142 1.082-4.501 2.264-6.381 13.382-21.286 26.805-42.547 40.384-63.707 5.661-8.821 11.315-17.7 17.705-25.987 7.404-9.604 17.36-15.354 29.754-16.234.268-.02.513-.358 1.057-.762l-.33-3.994H1769.1l.28 4.661c2.309.316 4.286.545 6.25.864 11.725 1.9 16.443 10.056 11.826 21.092-1.979 4.73-4.576 9.252-7.313 13.605-11.966 19.028-24.084 37.962-36.16 56.922-.753 1.183-1.618 2.296-2.679 3.79a56131 56131 0 0 1-41.592-64.306"/><path fill="#FEFEFD" d="M1103.36 225.678c48.168 13.054 92.959 32.814 134.679 59.398 77.548 49.415 137.154 115.213 178.338 197.41 8.169 16.305 14.193 33.686 21.104 50.613.914 2.238 1.218 4.725 1.914 7.541H507.22c2.314-8.405 3.856-16.55 6.769-24.17 15.636-40.909 37.609-78.332 64.244-112.952 63.74-82.845 145.476-140.357 245.015-172.331 35.945-11.547 72.847-18.403 110.518-21.36 57.334-4.498 113.7.825 169.595 15.85m300.582 273.936c-91.272-191.936-302.107-306.746-523.914-263.398-102.55 20.041-189.07 69.629-259.836 146.429-37.686 40.9-67 87.228-88.357 138.898h881.941c-3.348-7.423-6.463-14.324-9.834-21.93"/><path fill="#FDFDFC" d="M1307.198 1068.206c-69.56 62.74-149.864 103.215-241.59 120.836-34.301 6.59-68.944 9.65-103.829 8.678-102.576-2.858-195.961-33.63-279.308-93.72-70.84-51.074-124.377-116.569-160.891-195.904-4.796-10.42-8.863-21.175-13.222-31.794-.614-1.494-.966-3.096-1.584-5.12h931.816c-27.42 76.92-71.694 141.861-131.392 197.024M1286.5 889.844H534.68c61.54 152.53 235.182 303.186 470.232 287.854 113.22-7.384 211.519-50.946 294.588-128.233 48.434-45.062 85.41-98.31 111.9-159.621z"/><path fill="#262121" d="M917.813 687.827c-16.993 37.096-33.815 73.855-50.754 110.56-1.046 2.266-1.098 6.605-5.029 5.412-2.076-.63-3.979-3.411-5.016-5.658-23.838-51.66-47.546-103.379-71.283-155.085-.619-1.348-1.3-2.666-2.402-4.916-.257 1.828-.515 2.806-.515 3.785-.003 43.321-.01 86.643.075 129.964.008 4.143.323 8.33.972 12.42 1.36 8.563 5.86 12.737 14.584 13.725 3.95.448 7.946.505 12.216.756v5.014h-68.838v-4.98c3.909-.242 7.71-.329 11.476-.74 9.465-1.037 14.747-6.318 15.66-15.752.464-4.802.773-9.64.78-14.46q.087-63.483-.001-126.966c-.006-4.32-.296-8.664-.809-12.955-1.186-9.925-6.794-15.541-16.697-16.955-3.29-.47-6.604-.758-10.498-1.195l-.224-5.028h21.322c9.997 0 20 .192 29.989-.096 3.902-.113 5.797 1.091 7.466 4.72 22.172 48.216 44.538 96.343 66.864 144.488.892 1.922 1.873 3.804 3.166 6.42 7.833-17.177 15.329-33.608 22.82-50.042 15.387-33.756 30.816-67.493 46.085-101.302 1.45-3.21 3.19-4.318 6.703-4.274 15.66.198 31.323.08 46.986.096 1.466.002 2.931.144 4.677.236v4.523c-.495.19-.934.477-1.394.514-4.14.33-8.355.234-12.41.999-7.188 1.355-12.181 5.445-13.032 13.128-.622 5.61-1.035 11.276-1.046 16.919q-.128 63.232.002 126.465c.012 5.642.26 11.345 1.118 16.909 1.282 8.328 5.883 12.478 14.267 13.516 4.102.507 8.259.58 12.583.862v4.886h-84.34l-.268-4.883c4.32-.275 8.298-.363 12.234-.813 8.726-.998 13.52-5.433 14.903-14.14.702-4.415.944-8.945.951-13.423.07-42.822.046-85.643.042-128.465 0-.976-.09-1.951-.921-3.201-7.44 16.22-14.879 32.442-22.464 49.012"/><path fill="#242020" d="M1442.253 800.14c3.436-.898 6.796-1.462 10.18-1.795 11.384-1.122 16.482-5.951 17.697-17.16.447-4.133.759-8.302.764-12.456q.082-64.246.001-128.493c-.005-4.154-.312-8.323-.745-12.457-1.22-11.64-6.587-16.776-18.32-17.572-2.97-.202-5.963-.03-9.295-.03l-.4-4.704c.863-.273 1.471-.638 2.076-.632 36.648.391 73.32.185 109.93 1.588 12.058.462 24.454 3.777 35.822 8.09 22.82 8.66 37.38 26.311 45.862 48.712 9.855 26.03 10.18 52.63.524 78.718-13.272 35.855-40.597 54.472-77.548 59.969-9.027 1.343-18.234 1.936-27.366 2.019-28.164.255-56.33.102-84.496.092-2.379 0-5.415.792-4.686-3.89m145.098-159.978c-23.6-25.843-59.268-28.672-87.997-19.524V790.03c8.218 1.12 16.234 2.447 24.301 3.267 33.503 3.407 64.112-14.606 77.622-45.51 8.255-18.883 9.279-38.701 7.159-58.8-1.914-18.137-8.201-34.567-21.085-48.826"/><path fill="#242021" d="M593.166 758c.234 7.82.208 15.159.76 22.455.91 12.02 5.896 16.856 17.864 17.887 3.141.27 6.3.333 9.79.508l.448 4.799h-85.304v-4.7c4.406-.32 8.565-.416 12.664-.962 8.32-1.106 13.554-6.262 14.678-14.557.602-4.439.933-8.95.939-13.429.06-44.486.04-88.972-.01-133.459-.003-3.152-.457-6.3-.644-9.455-.743-12.515-8.78-16.123-18.972-16.902-2.783-.212-5.596-.032-8.7-.032V605.4c.538-.214.984-.55 1.427-.545 33.473.367 66.955.418 100.415 1.323 13.505.365 26.098 4.698 36.706 13.8 23.88 20.49 22.242 57.85-3.958 75.3-7.058 4.7-15.625 7.147-23.528 10.562-1.34.58-2.828.82-4.68 1.337 6.77 9.406 13.22 18.49 19.798 27.481 10.421 14.245 20.764 28.55 31.445 42.598 9.212 12.115 21.58 19.143 36.787 20.708 4.003.411 4.08 2.48 3.265 6.075h-5.21c-13.996 0-27.995-.181-41.985.111-4.125.087-6.6-1.13-9.003-4.485-20.173-28.16-40.607-56.132-60.754-84.31-2.443-3.418-4.918-4.755-9.026-4.428-4.792.381-9.638.089-15.212.089zm22.047-57.1c6.844-1.976 14.073-3.124 20.457-6.089 16.145-7.497 24.796-23.688 23.058-41.256-1.82-18.41-12.69-31.735-29.57-36.11-10.43-2.702-20.801-1.184-31.23.349-3.81.56-4.878 1.885-4.852 5.66.165 24.495.079 48.992.1 73.488.001 1.424.221 2.847.4 4.994 7.18-.334 13.96-.65 21.637-1.037"/><path fill="#252121" d="M456.245 805.306c-60.485 14.43-113.543-22.387-121.395-84.077-3.276-25.739-.384-50.539 13.252-73.29 21.1-35.204 62.517-54.054 101.71-46.338 39.415 7.76 71.166 41.048 77.268 81.277 4.988 32.883-.288 63.434-21.803 89.854-12.827 15.751-28.775 27.111-49.032 32.574m-84.004-60.189c4.343 9.667 7.909 19.789 13.227 28.885 6.497 11.11 16.603 18.522 29.228 21.986 31.409 8.619 62.032-8.109 73.321-40.148 7.34-20.832 7.87-42.438 6.52-64.151-1.071-17.219-4.334-33.926-12.26-49.542-15.95-31.426-47.862-35.516-70.402-28.328-19.458 6.205-30.398 21.098-36.761 39.394-10.412 29.937-9.802 60.473-2.873 91.904M1387.103 668c-.184-13.988.29-27.526-.75-40.947-.91-11.743-6.425-16.073-18.265-16.85-2.798-.183-5.618-.027-8.744-.027l-.423-5.009h69.056c.07 1.365.15 2.876.234 4.498-4.862.45-9.354.542-13.718 1.338-8.142 1.484-12.543 6.301-13.43 14.521-.552 5.124-.897 10.297-.903 15.448-.064 53.32-.04 106.639-.04 159.958v5.702c-3.86 1.282-5.972-.053-8.136-2.705-41.493-50.856-83.082-101.633-124.654-152.424-.838-1.023-1.71-2.019-3.115-3.675-.243 1.812-.537 2.98-.538 4.15-.02 39.656-.045 79.313.03 118.969.01 4.478.266 9.012 1.004 13.42 1.438 8.585 5.94 12.667 14.652 13.67 3.944.454 7.932.53 12.188.794l.34 4.857h-69.337l-.236-4.231c.671-.357 1.08-.747 1.513-.776 3.321-.219 6.662-.226 9.97-.565 9.79-1.003 15.025-6.117 16.065-15.93.49-4.63.63-9.314.635-13.974.046-44.155.085-88.31-.108-132.465-.012-2.827-1.373-6.098-3.119-8.392-8.83-11.605-20.736-17.397-35.719-17.262l-.354-4.62c.861-.275 1.467-.635 2.073-.636 16.496-.043 32.993-.157 49.484.089 1.875.028 4.208 1.712 5.507 3.3 38.387 46.939 76.67 93.963 114.973 140.971.94 1.153 1.917 2.275 3.865 4.582zM287.169 794.84c-40.175-49.09-80.127-97.903-120.825-147.628-.147 2.594-.294 3.995-.295 5.395-.012 38.659-.043 77.317.032 115.975.01 4.982.377 9.988.947 14.94 1.007 8.752 5.648 13.364 14.467 14.47 3.945.495 7.947.537 12.39.814l.259 4.977h-68.932v-4.969c4.2-.268 8.195-.328 12.137-.816 8.634-1.067 13.554-5.849 14.709-14.381.578-4.276.921-8.618.927-12.931.065-45.157.085-90.314-.079-135.47-.009-2.515-1.215-5.427-2.766-7.468-8.91-11.724-20.828-17.789-35.455-17.665-.34-.607-.62-.882-.634-1.169-.052-1.143-.021-2.289-.021-4.138h4.983c14.83 0 29.662.097 44.49-.075 3.336-.04 5.448 1.031 7.543 3.612 37.595 46.3 75.286 92.519 112.959 138.754 1.555 1.908 3.136 3.796 5.399 6.532.174-2.462.358-3.853.359-5.244.016-36.492.057-72.984-.04-109.476-.014-4.977-.556-9.976-1.18-14.923-.967-7.659-5.838-11.755-13.136-12.97-4.391-.732-8.883-.863-13.637-1.292v-4.568h68.75v4.583c-4.51.406-8.999.503-13.37 1.27-7.833 1.376-12.16 5.627-13.263 13.441-.81 5.742-1.042 11.605-1.05 17.414-.075 52.988-.044 105.977-.045 158.965v5.692c-3.83 1.527-6.152.338-8.17-2.443-2.247-3.095-4.807-5.964-7.453-9.207M1212.839 804.04h-72.978c-1.423-3.897-.685-5.942 3.62-5.963 1.806-.008 3.639-.401 5.407-.833 9.045-2.21 12.39-7.036 9.883-16.178-2.144-7.821-5.43-15.341-8.386-22.926-2.355-6.042-4.81-12.06-7.6-17.91-.655-1.374-2.83-2.864-4.318-2.875-23.492-.18-46.986-.17-70.478-.027-1.443.01-3.67 1.132-4.194 2.324-5.415 12.333-10.97 24.632-15.655 37.249-4.678 12.6-1.307 17.878 11.809 20.462 2.908.573 5.867.889 8.955 1.345v4.998h-62.09c-1.077-3.152-1.017-5.428 3.405-5.933 10.16-1.16 16.479-7.618 20.51-16.324a1974 1974 0 0 0 22.183-49.64c18.199-42.33 36.198-84.744 54.338-127.098.892-2.082 1.201-5.633 4.69-4.48 1.742.575 3.51 2.61 4.266 4.405 22.978 54.575 45.828 109.203 68.712 163.817 1.029 2.453 2.182 4.855 3.3 7.27 5.827 12.598 13.662 22.663 29.388 22.586.17 1.202.346 1.98.373 2.762.028.808-.09 1.62-.162 2.726-1.576.086-3.036.164-4.978.243m-134.735-98.385-8.665 20.391h67.965l-33.582-80.015c-8.826 20.466-17.12 39.696-25.718 59.624"/><path fill="#252021" d="M1699.894 642.092c13.84 21.409 27.497 42.504 41.41 63.994 1.061-1.495 1.926-2.608 2.68-3.791 12.075-18.96 24.193-37.894 36.159-56.922 2.737-4.353 5.334-8.875 7.313-13.605 4.617-11.036-.1-19.191-11.827-21.092-1.963-.319-3.94-.548-6.248-.864-.086-1.42-.172-2.845-.28-4.661h69.401l.331 3.994c-.544.404-.789.743-1.057.762-12.395.88-22.35 6.63-29.754 16.234-6.39 8.287-12.044 17.166-17.705 25.987-13.579 21.16-27.002 42.42-40.384 63.707-1.182 1.88-2.253 4.24-2.264 6.381-.091 18.328-.225 36.665.253 54.984.42 16.157 5.502 20.782 21.739 21.302 1.803.058 3.61.008 5.726.008l.488 5.13h-84.645v-4.805c3.603-.211 7.2-.314 10.776-.653 9.886-.937 15.162-5.324 16.191-15.057.96-9.075.8-18.28.924-27.43.136-9.997.103-19.998-.033-29.995-.026-1.89-.412-4.072-1.415-5.607-20.038-30.668-40.263-61.214-60.28-91.895-6.798-10.418-16.28-16.323-28.493-18.507-.107-.58-.305-1.215-.32-1.855-.02-.805.11-1.613.201-2.73h84.796l.43 4.44-2.539.56c-4.822 1.059-9.912 1.474-14.4 3.337-5.602 2.326-7.546 7.651-5.19 13.34 2.148 5.19 5.187 10.012 8.016 15.31"/><path fill="#231F20" d="M1404.072 499.964c3.242 7.254 6.357 14.155 9.705 21.578H531.836c21.357-51.67 50.67-97.998 88.357-138.898 70.766-76.8 157.286-126.388 259.836-146.43 221.807-43.347 432.642 71.463 524.043 263.75M1287 889.844h124.4c-26.49 61.31-63.466 114.56-111.9 159.621-83.07 77.287-181.368 120.849-294.588 128.233-235.05 15.332-408.691-135.324-470.231-287.854z"/><path fill="#DAB868" d="M1587.592 640.42c12.643 14 18.93 30.43 20.844 48.568 2.12 20.098 1.096 39.916-7.159 58.799-13.51 30.904-44.119 48.917-77.622 45.51-8.067-.82-16.083-2.148-24.301-3.267V620.637c28.729-9.148 64.398-6.319 88.238 19.782"/><path fill="#D9B867" d="M614.765 700.933c-7.228.351-14.01.668-21.189 1.002-.179-2.147-.399-3.57-.4-4.994-.021-24.496.065-48.993-.1-73.488-.026-3.775 1.043-5.1 4.852-5.66 10.429-1.533 20.8-3.051 31.23-.348 16.88 4.374 27.75 17.698 29.57 36.11 1.738 17.567-6.913 33.758-23.058 41.255-6.384 2.965-13.613 4.113-20.905 6.123"/><path fill="#DAB968" d="M372.153 744.717c-6.841-31.031-7.451-61.567 2.96-91.504 6.364-18.296 17.304-33.189 36.762-39.394 22.54-7.188 54.452-3.098 70.402 28.328 7.926 15.616 11.189 32.323 12.26 49.542 1.35 21.713.82 43.319-6.52 64.151-11.29 32.04-41.912 48.767-73.321 40.148-12.625-3.464-22.73-10.875-29.228-21.986-5.318-9.096-8.884-19.218-13.315-29.285"/><path fill="#DAB867" d="M1078.257 705.306c8.446-19.58 16.739-38.809 25.565-59.275l33.582 80.015h-67.965c3.021-7.11 5.843-13.75 8.818-20.74"/></svg>